<svg width="100%" height="100%" viewBox="0 0 31 50" fill="none" xmlns="http://www.w3.org/2000/svg">
<path d="M28.7035 38.8887H19.4988V48.0934C19.4988 49.1283 20.3702 49.9997 21.4051 49.9997H28.7035C29.7384 49.9997 30.6098 49.1283 30.6098 48.0934V40.795C30.5554 39.7601 29.7384 38.8887 28.7035 38.8887Z" fill="url(#paint0_linear_1700_6171)"/>
<path d="M30.5554 21.2962C30.501 20.2614 29.684 19.4444 28.6491 19.4444H11.1111V11.1111V1.90631C11.1111 0.871456 10.2396 0 9.20476 0H1.90631C0.871456 0 0 0.871456 0 1.90631V11.1111V19.4444V30.5554V38.8887V48.0935C0 49.1284 0.871456 49.9998 1.90631 49.9998H9.20476C10.2396 49.9998 11.1111 49.1284 11.1111 48.0935V38.8887V30.5554H28.6491C29.4117 30.5554 30.0652 30.1197 30.3376 29.4661C30.3376 29.4117 30.392 29.4117 30.392 29.3572C30.501 29.1393 30.5554 28.867 30.5554 28.5947V21.2962C30.6099 21.2962 30.6099 21.2962 30.5554 21.2962Z" fill="url(#paint1_linear_1700_6171)"/>
<path d="M30.5554 9.25895C30.5554 9.20449 30.5554 9.20449 30.5554 9.15002V1.90604C30.5554 1.79711 30.5554 1.68818 30.5554 1.63371C30.5554 1.52478 30.5009 1.47031 30.5009 1.36138C30.5009 1.30691 30.4464 1.25245 30.4464 1.19798C30.392 1.08905 30.3375 1.03459 30.3375 0.925655C30.283 0.871189 30.2286 0.762256 30.1741 0.70779C30.1196 0.653324 30.0652 0.598859 30.0652 0.598859C29.7384 0.272063 29.2482 0.0541992 28.7035 0.0541992H21.4051C20.3702 0.0541992 19.4988 0.925656 19.4988 1.96051V11.1653H28.7035C29.6839 11.1108 30.5554 10.2938 30.5554 9.25895Z" fill="url(#paint2_linear_1700_6171)"/>
<defs>
<linearGradient id="paint0_linear_1700_6171" x1="-0.503696" y1="44.4475" x2="30.0167" y2="44.4475" gradientUnits="userSpaceOnUse">
<stop stop-color="#FF82FF"/>
<stop offset="1" stop-color="#5D37C0"/>
</linearGradient>
<linearGradient id="paint1_linear_1700_6171" x1="-0.503647" y1="24.9905" x2="30.0167" y2="24.9905" gradientUnits="userSpaceOnUse">
<stop stop-color="#FF82FF"/>
<stop offset="1" stop-color="#5D37C0"/>
</linearGradient>
<linearGradient id="paint2_linear_1700_6171" x1="-0.503707" y1="5.53326" x2="30.0167" y2="5.53326" gradientUnits="userSpaceOnUse">
<stop stop-color="#FF82FF"/>
<stop offset="1" stop-color="#5D37C0"/>
</linearGradient>
</defs>
</svg>