<svg width="100%" height="100%" viewBox="12 10 16 22" fill="none" xmlns="http://www.w3.org/2000/svg">
<path d="M20.1156 13.333C19.4965 13.333 18.9907 13.8351 18.9907 14.458V26.3718C18.9907 26.9909 19.4928 27.4968 20.1156 27.4968C20.7348 27.4968 21.2406 26.9947 21.2406 26.3718V14.458C21.2406 13.8351 20.7385 13.333 20.1156 13.333Z" fill="#4AB4F0"/>
<path d="M24.9818 20.4149L30.1422 15.2507C30.5801 14.8128 30.5801 14.0993 30.1422 13.6614C29.7043 13.2235 28.9908 13.2235 28.5529 13.6614L22.596 19.6184C22.1581 20.0563 22.1581 20.7697 22.596 21.2076L28.5529 27.1645C28.7719 27.3835 29.0587 27.493 29.3494 27.493C29.6401 27.493 29.9232 27.3835 30.146 27.1645C30.5839 26.7267 30.5839 26.0132 30.146 25.5753L24.9818 20.4149Z" fill="#4AB4F0"/>
<path d="M10.6484 13.3328C10.0255 13.3328 9.52344 13.8348 9.52344 14.4577C9.52344 15.0806 10.0255 15.5827 10.6484 15.5827C13.3135 15.5827 15.4841 17.7495 15.4841 20.4146C15.4841 23.0798 13.3135 25.2504 10.6484 25.2504C10.0255 25.2466 9.52344 25.7487 9.52344 26.3716C9.52344 26.9944 10.0255 27.4965 10.6484 27.4965C14.5555 27.4965 17.7303 24.318 17.7303 20.4146C17.7303 16.5075 14.5517 13.3328 10.6484 13.3328Z" fill="#4AB4F0"/>
</svg>
