<svg width="100%" height="100%" viewBox="0 0 58 58" fill="none" xmlns="http://www.w3.org/2000/svg">
<path d="M17.2192 17.4641V14.5535L16.0564 13.8882L8.41528 9.45299L17.2192 4.38024V1.46965L16.3056 0.942966L14.9213 0.139088L14.6999 0.000488281L14.4784 0.139088L13.1772 0.887526L0.857178 8.01155V41.026L2.15839 41.7744L2.98895 42.2734L3.37655 42.4952L3.59803 42.3566L5.42526 41.3032L5.89591 41.026V40.7765V13.8327L13.2879 18.1016L14.4784 18.7946L14.6999 18.9332L16.5271 17.8799L17.2192 17.4641Z" fill="white"/>
<path d="M56.8654 7.37399L56.0072 6.84731L55.7026 6.68099L54.9828 6.2652L45.7913 0.942966L44.3793 0.139088L44.1578 0.000488281L43.9363 0.139088L42.5244 0.942966L41.6385 1.46965V4.38024L50.4424 9.45299L42.8566 13.8605L41.6385 14.5535V17.4641L43.7149 18.6837L44.1301 18.9332H44.1578L44.5454 18.7114L45.7636 17.9907L52.9618 13.8327V41.026L54.0969 41.6913L55.2597 42.3566L55.4811 42.4952L55.5642 42.4397L56.9208 41.6636L58.0005 41.026V8.01155L56.8654 7.37399Z" fill="white"/>
<path d="M18.1052 45.1826L18.0498 45.2103L16.8317 45.9033L15.5858 46.6241V49.5346L25.1926 55.1064L28.9302 57.2685L29.4008 57.5457H29.4285L29.65 57.4071L29.8161 57.324L34.4672 54.6351L26.9091 50.2831L18.1052 45.1826Z" fill="white"/>
<path d="M42.1077 45.9587L41.111 45.3766L40.7511 45.1826L31.9471 50.283V23.062L31.3934 22.7571L29.6493 21.7315L29.4278 21.6206L29.2063 21.7315L27.1022 22.9512L26.9084 23.062V50.283L29.4278 51.7245L34.4665 54.6351L35.4909 54.0529L43.2704 49.5346V46.624L42.1077 45.9587Z" fill="white"/>
</svg>
