<svg width="349" height="354" viewBox="0 0 349 354" fill="none" xmlns="http://www.w3.org/2000/svg">
<path d="M38.0901 18.6111C-74.0692 67.4591 -125.398 197.992 -76.5496 310.152C-27.7016 422.311 102.832 473.639 214.991 424.791C327.15 375.943 378.479 245.41 329.631 133.251C280.783 21.0915 150.249 -30.2369 38.0901 18.6111ZM182.527 350.251C148.433 365.099 109.838 365.796 75.2307 352.188C40.6235 338.579 12.8397 311.781 -2.0088 277.687C-16.8573 243.594 -17.554 204.998 -3.94577 170.391C9.66246 135.784 36.4609 108 70.5543 93.1519C104.648 78.3034 143.243 77.6066 177.851 91.2148C212.458 104.823 240.241 131.622 255.09 165.715C269.938 199.808 270.635 238.404 257.027 273.011C243.419 307.618 216.62 335.402 182.527 350.251Z" fill="url(#paint0_linear_115_906)" fill-opacity="0.2"/>
<defs>
<linearGradient id="paint0_linear_115_906" x1="38.0901" y1="18.6111" x2="214.991" y2="424.791" gradientUnits="userSpaceOnUse">
<stop stop-color="white"/>
<stop offset="0.421136" stop-color="white" stop-opacity="0"/>
<stop offset="1" stop-color="white" stop-opacity="0"/>
</linearGradient>
</defs>
</svg>
