<svg width="32" height="40" viewBox="0 0 32 40" fill="none" xmlns="http://www.w3.org/2000/svg">
<path fill-rule="evenodd" clip-rule="evenodd" d="M2.31665 26.8582L2.3103 26.8668L2.30415 26.8755C1.96131 27.3609 1.19333 27.5035 0.59274 27.0794C0.111968 26.7398 -0.0325575 25.9832 0.376835 25.3852C0.98767 24.6066 1.43129 23.6963 1.72266 22.8064C2.02599 21.88 2.16707 20.8273 2.16157 19.7948C2.15607 18.7623 2.0038 17.7112 1.69061 16.788C1.38978 15.9013 0.936492 14.9958 0.3174 14.2237C-0.0983371 13.6301 0.0381223 12.872 0.515252 12.5273C1.11129 12.0968 1.88075 12.2313 2.22873 12.713L2.23498 12.7216L2.24142 12.7301C3.01197 13.7462 3.64398 14.8751 4.02166 15.9827C4.41921 17.2857 4.67245 18.546 4.67903 19.7814C4.68595 21.0814 4.56173 22.3119 4.08468 23.5232C3.56513 24.8424 3.06201 25.8533 2.31665 26.8582ZM7.88796 29.2711L7.90302 29.2498L7.91684 29.2277C9.62468 26.4914 10.6098 23.1896 10.5914 19.7499C10.5731 16.311 9.55345 13.0207 7.81736 10.3032C7.44114 9.70657 7.61013 9.00115 8.24429 8.54307C8.67019 8.23542 9.46975 8.34435 9.94415 8.98012C11.9042 12.09 13.0882 15.8494 13.1089 19.7365C13.1303 23.7563 11.9873 27.3937 10.0587 30.5263C9.61254 31.1403 8.92951 31.3124 8.34052 30.9644C7.70198 30.4965 7.58526 29.6997 7.88796 29.2711ZM17.8855 4.89246L17.9024 4.92569L17.9219 4.95744C20.5778 9.28763 22.0538 14.2824 22.0826 19.6887C22.1114 25.0925 20.69 30.1006 18.0826 34.4574C17.6828 35.1002 17.008 35.2814 16.3238 34.963C15.701 34.5571 15.5338 33.8846 15.859 33.2053C18.0765 29.2672 19.4554 24.6265 19.4292 19.7028C19.4031 14.8011 18.1213 10.1678 15.7107 6.22939C15.3845 5.55691 15.546 4.88715 16.1613 4.47669C16.9037 4.12206 17.6269 4.38199 17.8855 4.89246ZM25.7498 0.771502L25.7613 0.7942L25.774 0.816225C28.9926 6.37971 30.8836 12.7404 30.9203 19.6416C30.957 26.5358 29.1377 32.9102 25.9845 38.5035C25.5841 39.1389 24.9124 39.3169 24.2314 38.9999C23.6107 38.5954 23.4425 37.9258 23.7636 37.2487C26.8012 32.0644 28.437 26.0581 28.4029 19.6551C28.3687 13.2354 26.5251 7.25241 23.5802 2.11925C23.2112 1.36992 23.4712 0.63602 23.9863 0.375057C24.7423 -0.00798852 25.4866 0.25203 25.7498 0.771502Z" fill="url(#paint0_linear_115_912)"/>
<defs>
<linearGradient id="paint0_linear_115_912" x1="15.4083" y1="0.241682" x2="15.6158" y2="39.2028" gradientUnits="userSpaceOnUse">
<stop stop-color="white" stop-opacity="0.73"/>
<stop offset="1" stop-color="white"/>
</linearGradient>
</defs>
</svg>
