<svg width="100%" height="100%" viewBox="0 0 145 144" xmlns="http://www.w3.org/2000/svg">
<path d="M107.56 88.2899C107.56 94.5899 109.352 97.1024 114.04 97.1024C124.487 97.1024 131.14 83.7899 131.14 61.6499C131.14 27.8099 106.48 11.6099 75.6924 11.6099C44.0199 11.6099 15.2124 32.8499 15.2124 72.9899C15.2124 111.33 40.4124 132.21 79.1124 132.21C92.2524 132.21 101.072 130.77 114.565 126.27L117.46 138.322C104.14 142.65 89.9049 143.902 78.9324 143.902C28.1724 143.902 0.984863 116.002 0.984863 72.9824C0.984863 29.6024 32.4924 0.0823975 75.8724 0.0823975C121.052 0.0823975 144.985 27.0824 144.985 60.2024C144.985 88.2824 136.172 109.702 108.452 109.702C95.8449 109.702 87.5724 104.662 86.4924 93.4949C83.2524 105.915 74.6124 109.702 62.9049 109.702C47.2449 109.702 34.1049 97.6349 34.1049 73.3424C34.1049 48.8624 45.6324 33.7424 66.3324 33.7424C77.3124 33.7424 84.1524 38.0624 87.1974 44.9024L92.4249 35.3624H107.545V88.2899H107.56ZM85.4274 64.5299C85.4274 54.6374 78.0399 50.4899 71.9199 50.4899C65.2599 50.4899 57.8874 55.8824 57.8874 71.7299C57.8874 84.3299 63.4674 91.3499 71.9199 91.3499C77.8599 91.3499 85.4274 87.5699 85.4274 77.1299V64.5299Z" fill="currentColor"/>
</svg>
