<?xml version="1.0" encoding="iso-8859-1"?>
<!-- Uploaded to: SVG Repo, www.svgrepo.com, Generator: SVG Repo Mixer Tools -->
<!DOCTYPE svg PUBLIC "-//W3C//DTD SVG 1.1//EN" "http://www.w3.org/Graphics/SVG/1.1/DTD/svg11.dtd">
<svg fill="currentColor" version="1.1" id="Capa_1" xmlns="http://www.w3.org/2000/svg" xmlns:xlink="http://www.w3.org/1999/xlink" 
	 width="800px" height="800px" viewBox="0 0 120.003 120.003"
	 xml:space="preserve">
<g>
	<g>
		<path d="M11.295,92.198v-0.13c0.895-0.217,1.615-0.702,2.162-1.457c0.545-0.756,0.82-1.668,0.82-2.733
			c0-1.621-0.627-2.815-1.883-3.584c-1.252-0.769-3.172-1.151-5.758-1.151H0v19.024h7.404c2.24,0,4.006-0.496,5.303-1.49
			c1.297-0.993,1.945-2.354,1.945-4.077c0-1.164-0.264-2.109-0.793-2.839C13.33,93.032,12.477,92.51,11.295,92.198z M5.141,87.032
			h1.443c1.615,0,2.422,0.532,2.422,1.6c0,0.601-0.201,1.052-0.605,1.354c-0.404,0.305-0.975,0.457-1.711,0.457H5.141V87.032z
			 M6.949,98.198H5.141v-3.996h1.705c0.814,0,1.438,0.17,1.867,0.508c0.429,0.338,0.645,0.824,0.645,1.459
			C9.357,97.521,8.555,98.198,6.949,98.198z"/>
		<path d="M27.928,94.282c0,1.368-0.236,2.354-0.711,2.959c-0.471,0.604-1.232,0.903-2.283,0.903c-0.979,0-1.721-0.305-2.225-0.91
			c-0.504-0.606-0.756-1.584-0.756-2.928V83.142h-5.166v11.567c0,2.49,0.695,4.397,2.09,5.728c1.391,1.328,3.385,1.989,5.979,1.989
			c2.656,0,4.688-0.682,6.098-2.049c1.41-1.367,2.115-3.295,2.115-5.785v-11.45h-5.141V94.282z"/>
		<path d="M40.799,87.333c0.305-0.235,0.791-0.353,1.459-0.353c1.291,0,2.826,0.408,4.605,1.224l1.574-3.97
			c-2.047-0.911-4.055-1.366-6.023-1.366c-2.23,0-3.982,0.489-5.258,1.471c-1.276,0.981-1.914,2.347-1.914,4.101
			c0,0.936,0.15,1.748,0.449,2.434s0.76,1.293,1.381,1.82c0.619,0.531,1.549,1.076,2.791,1.641c1.369,0.617,2.215,1.023,2.529,1.223
			c0.318,0.199,0.547,0.396,0.691,0.594c0.143,0.193,0.215,0.423,0.215,0.683c0,0.418-0.18,0.758-0.535,1.021
			c-0.354,0.267-0.914,0.396-1.678,0.396c-0.885,0-1.857-0.141-2.916-0.422c-1.057-0.283-2.078-0.674-3.059-1.178v4.58
			c0.93,0.442,1.822,0.754,2.682,0.93c0.859,0.18,1.922,0.268,3.189,0.268c1.518,0,2.842-0.254,3.967-0.762
			c1.129-0.506,1.992-1.219,2.592-2.133c0.598-0.916,0.896-1.963,0.896-3.143c0-1.285-0.318-2.351-0.955-3.195
			c-0.639-0.846-1.777-1.637-3.416-2.375c-1.711-0.779-2.758-1.318-3.143-1.613c-0.387-0.295-0.58-0.629-0.58-1.002
			C40.344,87.855,40.496,87.564,40.799,87.333z"/>
		<rect x="50.313" y="83.142" width="5.166" height="19.024"/>
		<path d="M72.061,91.743c0,1.161,0.06,2.702,0.183,4.618h-0.078L65.24,83.14h-6.714v19.025h4.555V93.59
			c0-1.108-0.082-2.719-0.246-4.828h0.114l6.949,13.404h6.742V83.142h-4.58V91.743L72.061,91.743z"/>
		<polygon points="79.686,102.167 90.982,102.167 90.982,97.976 84.826,97.976 84.826,94.385 90.527,94.385 90.527,90.26 
			84.826,90.26 84.826,87.267 90.982,87.267 90.982,83.142 79.686,83.142 		"/>
		<path d="M98.051,87.333c0.303-0.235,0.789-0.353,1.457-0.353c1.291,0,2.828,0.408,4.605,1.224l1.574-3.97
			c-2.047-0.911-4.056-1.366-6.025-1.366c-2.229,0-3.98,0.489-5.256,1.471c-1.276,0.981-1.914,2.347-1.914,4.101
			c0,0.936,0.15,1.748,0.449,2.434c0.301,0.686,0.76,1.293,1.381,1.82c0.619,0.531,1.551,1.076,2.791,1.641
			c1.371,0.617,2.213,1.023,2.531,1.223c0.315,0.199,0.547,0.396,0.688,0.594c0.144,0.193,0.215,0.423,0.215,0.683
			c0,0.418-0.178,0.758-0.532,1.021C99.66,98.12,99.1,98.25,98.335,98.25c-0.885,0-1.856-0.141-2.916-0.422
			c-1.06-0.283-2.076-0.674-3.058-1.178v4.58c0.929,0.442,1.822,0.754,2.683,0.93c0.856,0.18,1.92,0.268,3.188,0.268
			c1.518,0,2.84-0.254,3.969-0.762c1.127-0.506,1.99-1.219,2.59-2.133c0.6-0.916,0.896-1.963,0.896-3.143
			c0-1.285-0.318-2.351-0.955-3.195c-0.64-0.846-1.775-1.637-3.416-2.375c-1.709-0.779-2.758-1.318-3.144-1.613
			c-0.387-0.295-0.58-0.629-0.58-1.002C97.594,87.855,97.746,87.564,98.051,87.333z"/>
		<path d="M115.631,90.818c-1.709-0.778-2.756-1.317-3.143-1.612s-0.578-0.629-0.578-1.002c0-0.349,0.15-0.64,0.455-0.871
			c0.303-0.235,0.789-0.353,1.457-0.353c1.293,0,2.828,0.408,4.606,1.224l1.574-3.97c-2.047-0.911-4.058-1.366-6.024-1.366
			c-2.23,0-3.982,0.489-5.259,1.471s-1.911,2.347-1.911,4.101c0,0.936,0.147,1.748,0.448,2.434c0.297,0.686,0.759,1.293,1.379,1.82
			c0.619,0.531,1.55,1.076,2.791,1.641c1.371,0.617,2.216,1.023,2.531,1.223c0.315,0.2,0.547,0.396,0.688,0.594
			c0.144,0.193,0.215,0.423,0.215,0.683c0,0.418-0.178,0.758-0.532,1.021c-0.356,0.267-0.916,0.396-1.681,0.396
			c-0.885,0-1.854-0.141-2.914-0.422c-1.059-0.283-2.078-0.674-3.059-1.178v4.58c0.928,0.442,1.822,0.754,2.68,0.93
			c0.859,0.18,1.924,0.268,3.189,0.268c1.518,0,2.842-0.254,3.969-0.762c1.127-0.506,1.992-1.219,2.59-2.133
			c0.599-0.916,0.898-1.963,0.898-3.143c0-1.285-0.32-2.351-0.957-3.195C118.408,92.349,117.27,91.558,115.631,90.818z"/>
		<circle cx="73.589" cy="24.447" r="6.871"/>
		<circle cx="96.3" cy="24.449" r="6.871"/>
		<path d="M100.624,77.79c0.001,2.009,1.63,3.635,3.638,3.635h0.004c2.008-0.001,3.637-1.631,3.635-3.64l-0.004-4.959h-7.274
			L100.624,77.79z"/>
		<path d="M62.003,54.896l-0.015,22.888c-0.002,2.01,1.627,3.64,3.637,3.641c0,0,0.001,0,0.002,0c2.008,0,3.637-1.628,3.639-3.636
			l0.012-21.657c1.504-0.598,2.774-1.758,3.162-3.569l1.203-5.614c1.914,2.234,5.075,3.516,10.711,4.287
			c0.123,0.017,0.244,0.025,0.365,0.025c1.124,0,2.12-0.715,2.499-1.761c4.412-0.233,7.149-1.142,8.929-3.014l1.304,6.079
			c0.338,1.573,1.343,2.654,2.587,3.305h1.73c0.373-1.049,1.125-1.914,2.116-2.429c-0.901-4.306-2.155-8.538-3.231-11.11
			c-0.734-1.351,0.291-1.816,0.836-0.415c0.548,1.402,2.591,7.79,3.427,11.967c-1.261,0.388-2.228,1.454-2.45,2.778h-5.137v15.177
			h20.552V56.66h-5.136c-0.227-1.335-1.207-2.407-2.482-2.787c0.014-0.221,0.01-0.443-0.035-0.67
			c-0.34-1.738-4.513-18.112-4.513-18.112c-0.592-2.763-2.504-4.09-4.883-4.158l-0.021,0.001c0,0-0.84,0.004-1.562,0.143
			c-0.758,0.145-1.419,0.508-1.419,0.508c-1.754,0.851-3.431,2.608-3.638,4.742c-0.026,0.103-0.061,0.202-0.076,0.311
			c-0.463,3.26-0.928,5.326-1.926,6.235c-1.028,0.938-3.344,1.355-7.502,1.355c-0.963,0-1.797,0.515-2.268,1.279
			c-2.51-0.512-3.99-1.162-4.771-2.067c-1.016-1.173-1.387-3.354-1.877-6.804c-0.016-0.108-0.049-0.209-0.076-0.312
			c-0.205-2.133-1.883-3.892-3.637-4.742c0,0-0.662-0.363-1.418-0.508c-0.725-0.139-1.562-0.143-1.562-0.143l-0.021-0.002
			c-2.38,0.069-5.181,1.396-5.772,4.158l-3.177,14.831C59.685,51.899,60.57,53.672,62.003,54.896z M107.602,56.385
			c0.17,0,0.342-0.018,0.516-0.051c0.578-0.113,1.07-0.411,1.441-0.813c0.627,0.109,1.137,0.553,1.348,1.139h-6.605
			c0.211-0.586,0.721-1.028,1.346-1.137C106.143,56.059,106.846,56.385,107.602,56.385z"/>
	</g>
</g>
</svg>