<svg width="100%" height="100%" viewBox="0 0 17 20" xmlns="http://www.w3.org/2000/svg">
<path d="M8.75 17H8.5C6.13333 17 4.125 16.175 2.475 14.525C0.825 12.875 0 10.8667 0 8.5C0 6.13333 0.825 4.125 2.475 2.475C4.125 0.825 6.13333 0 8.5 0C9.68333 0 10.7877 0.220667 11.813 0.662C12.8383 1.10333 13.7383 1.71167 14.513 2.487C15.2877 3.26233 15.8957 4.16233 16.337 5.187C16.7783 6.21167 16.9993 7.316 17 8.5C17 10.7333 16.3707 12.8083 15.112 14.725C13.8533 16.6417 12.266 18.1417 10.35 19.225C10.1833 19.3083 10.0167 19.3543 9.85 19.363C9.68333 19.3717 9.53333 19.334 9.4 19.25C9.26667 19.1667 9.15 19.0583 9.05 18.925C8.95 18.7917 8.89167 18.6333 8.875 18.45L8.75 17ZM11 16.35C12.1833 15.35 13.146 14.179 13.888 12.837C14.63 11.495 15.0007 10.0493 15 8.5C15 6.68333 14.3707 5.146 13.112 3.888C11.8533 2.63 10.316 2.00067 8.5 2C6.68333 2 5.146 2.62933 3.888 3.888C2.63 5.14667 2.00067 6.684 2 8.5C2 10.3167 2.62933 11.854 3.888 13.112C5.14667 14.37 6.684 14.9993 8.5 15H11V16.35ZM8.475 13.975C8.75833 13.975 9 13.875 9.2 13.675C9.4 13.475 9.5 13.2333 9.5 12.95C9.5 12.6667 9.4 12.425 9.2 12.225C9 12.025 8.75833 11.925 8.475 11.925C8.19167 11.925 7.95 12.025 7.75 12.225C7.55 12.425 7.45 12.6667 7.45 12.95C7.45 13.2333 7.55 13.475 7.75 13.675C7.95 13.875 8.19167 13.975 8.475 13.975ZM6.3 6.375C6.48333 6.45833 6.66667 6.46267 6.85 6.388C7.03333 6.31333 7.18333 6.19233 7.3 6.025C7.45 5.825 7.625 5.67067 7.825 5.562C8.025 5.45333 8.25 5.39933 8.5 5.4C8.9 5.4 9.225 5.51233 9.475 5.737C9.725 5.96167 9.85 6.24933 9.85 6.6C9.85 6.81667 9.78733 7.03333 9.662 7.25C9.53667 7.46667 9.316 7.73333 9 8.05C8.58333 8.41667 8.275 8.76267 8.075 9.088C7.875 9.41333 7.775 9.74233 7.775 10.075C7.775 10.275 7.846 10.446 7.988 10.588C8.13 10.73 8.30067 10.8007 8.5 10.8C8.7 10.8 8.86667 10.725 9 10.575C9.13333 10.425 9.23333 10.25 9.3 10.05C9.38333 9.76667 9.53333 9.50833 9.75 9.275C9.96667 9.04167 10.1667 8.83333 10.35 8.65C10.7 8.3 10.9627 7.95 11.138 7.6C11.3133 7.25 11.4007 6.9 11.4 6.55C11.4 5.78333 11.1373 5.16667 10.612 4.7C10.0867 4.23333 9.38267 4 8.5 4C7.96667 4 7.475 4.12933 7.025 4.388C6.575 4.64667 6.20833 5.00067 5.925 5.45C5.825 5.63333 5.81233 5.81233 5.887 5.987C5.96167 6.16167 6.09933 6.291 6.3 6.375Z" fill="currentColor"/>
</svg>
