<svg width="86" height="30" viewBox="0 0 86 30" fill="none" xmlns="http://www.w3.org/2000/svg">
<path d="M43.6237 2.23891V11.9018H41.6762V2.23891H37.9543V0.404541H47.3744V2.23891H43.6237Z" fill="white"/>
<path d="M52.3223 5.87891C52.1059 5.85002 51.904 5.83558 51.702 5.83558C50.245 5.83558 49.5814 6.67332 49.5814 8.16104V11.9309H47.7061V4.00121H49.5381V5.27227C49.9132 4.40564 50.7788 3.91455 51.8174 3.91455C52.0482 3.91455 52.2358 3.94344 52.3223 3.95788V5.87891Z" fill="white"/>
<path d="M54.8182 0C55.4962 0 56.0444 0.548866 56.0444 1.22773C56.0444 1.90659 55.4962 2.44101 54.8182 2.44101C54.1546 2.44101 53.6064 1.90659 53.6064 1.22773C53.6064 0.548866 54.1546 0 54.8182 0ZM53.895 11.9017V4.00094H55.7559V11.9017H53.895Z" fill="white"/>
<path d="M60.0692 11.9019H58.1938V4.00112H60.0115V5.05552C60.5308 4.14556 61.4685 3.77002 62.3485 3.77002C64.2815 3.77002 65.2048 5.17107 65.2048 6.90433V11.9019H63.3294V7.23654C63.3294 6.2688 62.8967 5.48884 61.7137 5.48884C60.6462 5.48884 60.0836 6.31213 60.0836 7.35209V11.9019H60.0692Z" fill="white"/>
<path d="M68.4073 0C69.0853 0 69.6335 0.548866 69.6335 1.22773C69.6335 1.90659 69.0853 2.44101 68.4073 2.44101C67.7437 2.44101 67.1956 1.90659 67.1956 1.22773C67.1956 0.548866 67.7437 0 68.4073 0ZM67.4841 11.9017V4.00094H69.345V11.9017H67.4841Z" fill="white"/>
<path d="M74.1632 4.00074H75.7933V5.67623H74.1632V9.34496C74.1632 10.0383 74.4661 10.3416 75.173 10.3416C75.4326 10.3416 75.7356 10.2983 75.8221 10.2838V11.8437C75.7067 11.8871 75.3461 12.0171 74.6681 12.0171C73.2111 12.0171 72.3022 11.136 72.3022 9.66273V5.67623H70.8308V4.00074H71.2347C72.0714 4.00074 72.4465 3.46632 72.4465 2.77302V1.58862H74.1487V4.00074H74.1632Z" fill="white"/>
<path d="M78.231 15.108L80.1208 10.9771L76.7451 4.01514H78.8657L81.1306 9.0127L83.2512 4.01514H85.2419L80.2217 15.108H78.231Z" fill="white"/>
<path d="M43.6237 20.077V29.74H41.6762V20.077H37.9543V18.2427H47.3744V20.077H43.6237Z" fill="white"/>
<path d="M54.2408 27.4868C53.8225 28.859 52.5674 29.9856 50.6777 29.9856C48.5426 29.9856 46.6384 28.4257 46.6384 25.7536C46.6384 23.2548 48.4849 21.5938 50.4757 21.5938C52.8992 21.5938 54.3274 23.197 54.3274 25.6958C54.3274 25.9991 54.2985 26.2591 54.2841 26.3024H48.5138C48.5571 27.5013 49.5092 28.3679 50.6632 28.3679C51.8029 28.3679 52.3799 27.7613 52.6396 26.9957L54.2408 27.4868ZM52.4376 24.9303C52.4088 24.0059 51.7884 23.1826 50.4901 23.1826C49.3072 23.1826 48.6292 24.0925 48.5571 24.9303H52.4376Z" fill="white"/>
<path d="M57.3861 25.7824C57.3861 27.3712 58.4103 28.2668 59.5933 28.2668C60.8194 28.2668 61.3965 27.4001 61.5696 26.8079L63.2286 27.4146C62.8535 28.6423 61.6706 30 59.5933 30C57.2707 30 55.5107 28.1945 55.5107 25.7969C55.5107 23.3703 57.2707 21.6082 59.55 21.6082C61.6706 21.6082 62.8391 22.937 63.1564 24.208L61.4686 24.8291C61.2955 24.1358 60.7617 23.3559 59.55 23.3559C58.4103 23.3414 57.3861 24.1936 57.3861 25.7824Z" fill="white"/>
<path d="M66.7626 29.7399H64.8872V17.9971H66.7626V22.6047C67.2963 21.9113 68.1907 21.608 69.013 21.608C70.9605 21.608 71.8982 23.0091 71.8982 24.7423V29.7399H70.0228V25.0746C70.0228 24.1068 69.59 23.3268 68.4071 23.3268C67.3685 23.3268 66.8058 24.1068 66.777 25.1179V29.7399H66.7626Z" fill="white"/>
<path d="M8.52566 9.09961V7.58301L7.91977 7.23636L3.93825 4.92535L8.52566 2.28213V0.765523L8.0496 0.49109L7.32831 0.0722192L7.21291 0L7.0975 0.0722192L6.41949 0.462203L0 4.17427V21.3769L0.678013 21.7669L1.11079 22.0268L1.31275 22.1424L1.42816 22.0702L2.38026 21.5213L2.6255 21.3769V21.2469V7.20747L6.47719 9.43182L7.0975 9.79292L7.21291 9.86514L8.16501 9.31627L8.52566 9.09961Z" fill="white"/>
<path d="M29.1835 3.84206L28.7363 3.56763L28.5776 3.48096L28.2025 3.26431L23.4131 0.49109L22.6774 0.0722192L22.562 0L22.4466 0.0722192L21.7109 0.49109L21.2493 0.765523V2.28213L25.8367 4.92535L21.884 7.22192L21.2493 7.58301V9.09961L22.3312 9.73514L22.5476 9.86514H22.562L22.764 9.74959L23.3987 9.37405L27.1494 7.20747V21.3769L27.7409 21.7235L28.3468 22.0702L28.4622 22.1424L28.5055 22.1135L29.2123 21.7091L29.7749 21.3769V4.17427L29.1835 3.84206Z" fill="white"/>
<path d="M8.98731 23.5437L8.95846 23.5581L8.32372 23.9192L7.67456 24.2948V25.8114L12.6803 28.7146L14.6278 29.8412L14.873 29.9857H14.8875L15.0029 29.9134L15.0894 29.8701L17.513 28.469L13.5747 26.2014L8.98731 23.5437Z" fill="white"/>
<path d="M21.4942 23.948L20.9749 23.6447L20.7874 23.5436L16.2 26.2013V12.0174L15.9114 11.8586L15.0026 11.3241L14.8872 11.2664L14.7718 11.3241L13.6754 11.9597L13.5745 12.0174V26.2013L14.8872 26.9524L17.5127 28.469L18.0465 28.1656L22.1001 25.8113V24.2947L21.4942 23.948Z" fill="white"/>
</svg>
