<svg width="100%" height="100%" viewBox="0 0 19 19" xmlns="http://www.w3.org/2000/svg">
<path d="M12.95 10.3L8.7 6.05C8.6 5.95 8.52934 5.84167 8.488 5.725C8.44667 5.60833 8.42567 5.48333 8.425 5.35C8.425 5.21667 8.446 5.09167 8.488 4.975C8.53 4.85833 8.60067 4.75 8.7 4.65L12.95 0.4C13.05 0.3 13.1583 0.229333 13.275 0.188C13.3917 0.146667 13.5167 0.125667 13.65 0.125C13.7833 0.125 13.9083 0.146 14.025 0.188C14.1417 0.23 14.25 0.300667 14.35 0.4L18.6 4.65C18.7 4.75 18.771 4.85833 18.813 4.975C18.855 5.09167 18.8757 5.21667 18.875 5.35C18.875 5.48333 18.854 5.60833 18.812 5.725C18.77 5.84167 18.6993 5.95 18.6 6.05L14.35 10.3C14.25 10.4 14.1417 10.471 14.025 10.513C13.9083 10.555 13.7833 10.5757 13.65 10.575C13.5167 10.575 13.3917 10.5543 13.275 10.513C13.1583 10.4717 13.05 10.4007 12.95 10.3ZM3.46021e-06 8V2C3.46021e-06 1.71667 0.0960036 1.479 0.288004 1.287C0.480004 1.095 0.717337 0.999333 1 1H7C7.28334 1 7.521 1.096 7.713 1.288C7.905 1.48 8.00067 1.71733 8 2V8C8 8.28333 7.904 8.521 7.712 8.713C7.52 8.905 7.28267 9.00067 7 9H1C0.71667 9 0.479003 8.904 0.287003 8.712C0.0950034 8.52 -0.000663206 8.28267 3.46021e-06 8ZM10 18V12C10 11.7167 10.096 11.479 10.288 11.287C10.48 11.095 10.7173 10.9993 11 11H17C17.2833 11 17.521 11.096 17.713 11.288C17.905 11.48 18.0007 11.7173 18 12V18C18 18.2833 17.904 18.521 17.712 18.713C17.52 18.905 17.2827 19.0007 17 19H11C10.7167 19 10.479 18.904 10.287 18.712C10.095 18.52 9.99934 18.2827 10 18ZM3.46021e-06 18V12C3.46021e-06 11.7167 0.0960036 11.479 0.288004 11.287C0.480004 11.095 0.717337 10.9993 1 11H7C7.28334 11 7.521 11.096 7.713 11.288C7.905 11.48 8.00067 11.7173 8 12V18C8 18.2833 7.904 18.521 7.712 18.713C7.52 18.905 7.28267 19.0007 7 19H1C0.71667 19 0.479003 18.904 0.287003 18.712C0.0950034 18.52 -0.000663206 18.2827 3.46021e-06 18ZM2 7H6V3H2V7ZM13.675 8.2L16.5 5.375L13.675 2.55L10.85 5.375L13.675 8.2ZM12 17H16V13H12V17ZM2 17H6V13H2V17Z" fill="currentColor"/>
</svg>
